<svg xmlns="http://www.w3.org/2000/svg" xmlns:xlink="http://www.w3.org/1999/xlink" width="80" height="80" viewBox="0 0 80 80">
    <defs>
        <linearGradient id="b" x1="43.884%" x2="56.798%" y1="-23.868%" y2="95.123%">
            <stop offset="0%" stop-color="#26E9E6"/>
            <stop offset="100%" stop-color="#00B4AE"/>
        </linearGradient>
        <path id="a" d="M2.697 4.907h28.315v45.506H2.697z"/>
        <linearGradient id="d" x1="97.644%" x2="2.095%" y1="39.221%" y2="54.102%">
            <stop offset="0%" stop-color="#EC6674"/>
            <stop offset="100%" stop-color="#E30611"/>
        </linearGradient>
    </defs>
    <g fill="none" fill-rule="evenodd">
        <circle cx="40" cy="40" r="40" fill="#D6F5F4"/>
        <ellipse cx="40" cy="40.225" fill="#BCECEA" rx="29.213" ry="29.438"/>
        <g transform="translate(22.022 10.787)">
            <rect width="36.404" height="60.674" fill="#202D3D" rx="4.964"/>
            <rect width="33.258" height="60.674" fill="#6E7782" rx="4.964"/>
            <mask id="c" fill="#fff">
                <use xlink:href="#a"/>
            </mask>
            <use fill="url(#b)" fill-rule="nonzero" xlink:href="#a"/>
            <g mask="url(#c)">
                <path fill="#F0BA7D" d="M13.27 27.089l-.058 2.805-4.774 2.603v9.54H24.51v-9.54l-4.437-2.75-.243-2.804-6.56.146z"/>
                <path fill="#FED298" d="M11.065 18.908s-.274-.6-1.01-.302c-.734.297.034 3.26.315 3.673.28.413.732.15.897.135.234 1.766.255 2.983.964 3.728.672.705 2.21 2.143 3.02 2.644.549.115.958.183 1.343.203.385-.02.795-.088 1.343-.203.81-.501 2.349-1.939 3.02-2.644.71-.745.73-1.962.964-3.728.165.016.617.278.898-.135.28-.413 1.049-3.376.313-3.673-.735-.297-1.008.302-1.008.302s.726-2.326-.565-4.617c-.885-1.57-2.903-2.384-4.965-2.443-2.061.06-4.08.874-4.964 2.443-1.292 2.29-.565 4.617-.565 4.617z"/>
                <path fill="#45B6FC" d="M10.871 30.72l1.143-.45.922-.825 3.253 2.46h.81l3.254-2.463 2.064 1.278 3.587 6.078-2.841 15.365c-2.06.57-4.228.875-6.47.875-1.827 0-3.607-.204-5.319-.587l-5.09-15.167 4.687-6.564z"/>
                <path fill="#AAE2FF" d="M21.274 29.951l-1.314-1.615L17 31.905l2.542 2.816zM11.912 29.923l1.315-1.587 2.962 3.569-2.643 2.787z"/>
                <path fill="#FFF" d="M3.208 32.745c-.354.114-.576.414-.648.778L0 46.455a24.213 24.213 0 0 0 5.833 4.065l1.655.746a24.14 24.14 0 0 0 9.106 1.772v-1.615l-4.681-21.5-8.705 2.822z"/>
                <path fill="#E2E5EB" d="M11.912 29.923l-.996.305-2.642 4.493 3.335.104-2.047 1.162 7.032 15.436-4.681-21.5z"/>
                <path fill="#FFF" d="M29.98 32.745c.355.113.577.414.649.778l2.56 12.932a24.22 24.22 0 0 1-5.834 4.065l-1.655.746a24.14 24.14 0 0 1-9.106 1.772v-1.615l4.68-21.472 8.707 2.794z"/>
                <path fill="#E2E5EB" d="M21.274 29.951l.553.168 3.085 4.63-3.334.105 2.047 1.162-7.03 15.407 4.678-21.472z"/>
                <path fill="#666" d="M21.49 19.601l.512-.018.165-.582.482-.48c.319-2.393.413-6.116-1.969-6.008 0 0-.215-2.715-4.51-2.183-4.297.532-6.238 3.297-6.007 5.604.231 2.307.138 2.586.138 2.586l.483.48.073.663.42-.026s.133-.887.265-1.278c.132-.39.091-1.18.091-1.18s5.074.323 6.446-1.416c.847-1.074 2.792-2.935 2.89-.358.029.764-.256 1.91.289 2.743.545.834.231 1.453.231 1.453z"/>
                <path fill="#6E7782" d="M16.594 51.423l1.372-6.294-.932-12.407.508-.216-.543-.601h-.81l-.557.587.522.23-.908 12.508 1.348 6.193z"/>
            </g>
            <g fill-rule="nonzero" stroke="#202D3D" stroke-width=".934" mask="url(#c)">
                <g transform="translate(6.742 29.89)">
                    <path d="M18.041 6.885C18.285 2.302 17.146.01 14.623.01M1.95 10.774C1.727 3.634 2.877.064 5.4.064"/>
                    <ellipse cx="1.831" cy="11.813" fill="#E8E8E8" stroke-linecap="round" rx="1.831" ry="1.771"/>
                    <path d="M16.154 14.681h3.662c.177 0 .499-.025.579-.048.802-.227 1.31-1.18 1.098-2.135l-.98-4.428c-.173-.78-.776-1.311-1.448-1.311h-1.84c-.672 0-1.275.53-1.448 1.31l-.98 4.43a2.018 2.018 0 0 0-.048.435c0 1.003.618 1.747 1.405 1.747z"/>
                </g>
            </g>
            <path fill="url(#d)" d="M2.697 46.844H31.01v6.246H2.697z"/>
            <path fill="#FFF" fill-rule="nonzero" d="M16.962 50.335a.227.227 0 0 0-.23.002l-.36.212a.227.227 0 0 1-.255-.015 5.842 5.842 0 0 1-.512-.443 5.824 5.824 0 0 1-.447-.508.222.222 0 0 1-.015-.253l.214-.357a.224.224 0 0 0 .001-.23l-.528-.895a.228.228 0 0 0-.25-.105.747.747 0 0 0-.35.208c-.407.404-.623 1.086.907 2.605s2.217 1.305 2.624.9a.742.742 0 0 0 .21-.347.224.224 0 0 0-.106-.248l-.903-.526z"/>
        </g>
    </g>
</svg>
