<?xml version="1.0" encoding="UTF-8"?>
<svg width="44px" height="44px" viewBox="0 0 44 44" version="1.1" xmlns="http://www.w3.org/2000/svg" xmlns:xlink="http://www.w3.org/1999/xlink">
    <!-- Generator: Sketch 54.1 (76490) - https://sketchapp.com -->
    <title>terapevt copy 2</title>
    <desc>Created with Sketch.</desc>
    <defs>
        <linearGradient x1="34.202997%" y1="-23.8677766%" x2="67.559036%" y2="95.1225487%" id="linearGradient-1">
            <stop stop-color="#26E9E6" offset="0%"></stop>
            <stop stop-color="#00B4AE" offset="100%"></stop>
        </linearGradient>
    </defs>
    <g id="terapevt-copy-2" stroke="none" stroke-width="1" fill="none" fill-rule="evenodd">
        <g id="img/terapevt">
            <circle id="Mask" fill="url(#linearGradient-1)" fill-rule="nonzero" cx="27" cy="20" r="13"></circle>
            <path d="M16.9264198,27.4051551 L16.9264198,34.401596 C16.9264198,37.6729691 19.5896543,40.324941 22.8749206,40.324941 C26.160187,40.324941 28.8234215,37.6729691 28.8234215,34.401596 L28.8234215,25.6121164 C28.8234215,23.1005461 30.8680984,21.0645161 33.3903351,21.0645161 L36,21.0645161 L36,23.7395751 L33.3903351,23.7395751 C32.351767,23.7395751 31.5098413,24.5779404 31.5098413,25.6121164 L31.5098413,34.401596 C31.5098413,39.1503634 27.6438556,43 22.8749206,43 C18.1059857,43 14.24,39.1503634 14.24,34.401596 L14.24,27.4245671 C10.3854156,26.8622582 7.49675758,23.7470418 5.68735211,19.1070749 C4.15326904,15.1731337 3.58550888,10.3607809 4.31626015,8.17629448 C5.1672036,5.63250903 6.39628732,4.63370095 8.99122834,3.63276667 C9.90221866,3.2813747 10.114394,3.19480756 10.5053945,3 L11.7351551,5.45080686 C11.2354503,5.69977399 10.9860716,5.80152003 9.98390012,6.18808287 C8.07825872,6.92313688 7.46819578,7.41890116 6.9249763,9.04278555 C6.43134594,10.5184297 6.92719594,14.7212697 8.25047296,18.1146283 C9.8893903,22.3174023 12.393133,24.7760437 15.52,24.7760437 C18.646867,24.7760437 21.1506097,22.3174023 22.789527,18.1146283 C24.1128041,14.7212697 24.6086541,10.5184297 24.1150237,9.04278555 C23.5718042,7.41890116 22.9617413,6.92313688 21.0560999,6.18808287 C20.0539284,5.80152003 19.8045497,5.69977399 19.3048449,5.45080686 L20.5346055,3 C20.925606,3.19480756 21.1377813,3.2813747 22.0487717,3.63276667 C24.6437127,4.63370095 25.8727964,5.63250903 26.7237399,8.17629448 C27.4544911,10.3607809 26.886731,15.1731337 25.3526479,19.1070749 C23.5630781,23.696176 20.7177887,26.7937736 16.9264198,27.4051551 Z" id="Combined-Shape" fill="#00716D" fill-rule="nonzero"></path>
            <circle id="Oval" fill="#00716D" cx="38.5" cy="22.5" r="5.5"></circle>
            <circle id="Oval" fill="#FFFFFF" cx="38.5" cy="22.5" r="2.5"></circle>
            <circle id="Oval" fill="#00716D" cx="11" cy="4.5" r="2"></circle>
            <circle id="Oval-Copy" fill="#00716D" cx="20" cy="4.5" r="2"></circle>
            <rect id="box" x="0" y="0" width="44" height="44"></rect>
        </g>
    </g>
</svg>