<?xml version="1.0" encoding="UTF-8"?>
<svg width="44px" height="44px" viewBox="0 0 44 44" version="1.1" xmlns="http://www.w3.org/2000/svg" xmlns:xlink="http://www.w3.org/1999/xlink">
    <!-- Generator: Sketch 54.1 (76490) - https://sketchapp.com -->
    <title>pediatr copy 2</title>
    <desc>Created with Sketch.</desc>
    <defs>
        <linearGradient x1="35.0453499%" y1="-23.8677766%" x2="66.6227251%" y2="95.1225487%" id="linearGradient-1">
            <stop stop-color="#26E9E6" offset="0%"></stop>
            <stop stop-color="#00B4AE" offset="100%"></stop>
        </linearGradient>
        <polygon id="path-2" points="2 1 43 1 43 42 2 42"></polygon>
    </defs>
    <g id="pediatr-copy-2" stroke="none" stroke-width="1" fill="none" fill-rule="evenodd">
        <g id="img/pediatr">
            <rect id="box" x="0" y="0" width="44" height="44"></rect>
            <ellipse id="Mask" fill="url(#linearGradient-1)" fill-rule="nonzero" cx="22" cy="22.5" rx="17.027027" ry="17.5"></ellipse>
            <mask id="mask-3" fill="white">
                <use xlink:href="#path-2"></use>
            </mask>
            <g id="Clip-2" transform="translate(22.500000, 21.500000) scale(-1, 1) translate(-22.500000, -21.500000) "></g>
            <path d="M12,34.8474273 C12.3417337,29.8917005 16.7041786,26.0280487 21.9896444,26 C27.4708143,26.0039527 31.9311517,30.145583 32,35.2949904 C29.1315885,37.070192 25.7695886,38.0110017 22.334857,37.9998278 C18.6195542,38.0158665 14.9968043,36.9108693 12,34.8474273 Z M33.4789397,17.2894601 C33.465864,17.2325898 33.4592101,17.1744139 33.4592101,17.1161654 C33.4595969,16.708426 33.7565476,16.3534222 34.1788396,16.2557853 C34.581402,16.1618478 35.0026881,16.3217954 35.2220355,16.6519185 L36.054008,17.9580482 C36.7708522,19.0721683 38.3154134,19.4304363 39.5037577,18.7582938 C39.7484828,18.6200353 39.9660506,18.4435489 40.1474087,18.2365238 C40.6236284,17.6900907 40.8127236,16.9719587 40.6623914,16.2805935 L39.4409323,10.5486673 C39.3983007,10.3683364 39.44983,10.1799537 39.5795815,10.0411148 C39.7022148,9.89531229 39.88984,9.8107323 40.0879102,9.81211054 C41.0206201,9.81044215 41.7763819,9.10195782 41.7781615,8.22757775 L41.7781615,7.64574579 C41.7767688,7.45112477 41.6792037,7.26825501 41.5140936,7.15045235 C36.1174524,3.35574152 31.330374,5.05286045 28.6296348,8.60390399 C25.9288957,12.1549475 26,17 26,17 C26,17 13,17 13,17 C13,17 8.94825709,19.4564811 8.66291211,24.7924705 C8.57023157,26.5256089 8.66291211,32.6839 8.66291211,32.6839 C7.78784384,31.4423296 6.40327526,28.9340061 5.97463881,27.501224 C5.72364664,26.6941598 4.93012761,26.1425038 4.03362752,26.1517888 C2.9295405,26.1364831 2.02019679,26.9613194 2.00000291,27.9963724 C1.99969343,28.1576982 2.02406535,28.3182261 2.07265447,28.4730234 C3.1160051,31.9573416 5.40069925,34.9024081 8.33074658,37.2583887 C9.71607791,38.3877418 11.2572348,39.3371268 12.912669,40.08101 C18.6433217,42.6396633 25.2988696,42.6396633 31.0295223,40.08101 C31.4257402,39.901477 31.8151495,39.7096124 32.1981369,39.5115095 C33.1576171,39.0117187 34.0698236,38.4359075 34.9249301,37.7907493 C38.3446597,35.2782305 40.6695869,31.9139636 41.9280295,28.3624746 C42.0921338,27.8219171 41.9719763,27.2404478 41.6046179,26.7964392 C41.2125006,26.3210213 40.6080768,26.0422555 39.9671338,26.04124 C39.4229821,26.037468 38.8999528,26.2381097 38.5145669,26.5983363 C38.2827628,26.8193613 38.1146352,27.0920339 38.0260451,27.3906752 C37.4877737,29.1655492 36.4198964,31.2196362 35.2220355,32.6839 C35.2220355,32.6839 35.3175527,28.810618 35.3175527,27.3906752 C35.3175527,25.5292138 35.3591373,22.736092 34.9679485,21.3498072 C34.6751759,20.3121428 33.4789397,17.2894601 33.4789397,17.2894601 Z" id="Fill-1" fill="#00716D" mask="url(#mask-3)" transform="translate(22.000000, 23.500000) scale(-1, 1) translate(-22.000000, -23.500000) "></path>
            <path d="M18,17 L31,17 L31,17.3292683 C31,20.9191192 28.0898509,23.8292683 24.5,23.8292683 L24.5,23.8292683 C20.9101491,23.8292683 18,20.9191192 18,17.3292683 L18,17 Z" id="Rectangle" fill="#FFFFFF" mask="url(#mask-3)"></path>
        </g>
    </g>
</svg>