<svg width="24" height="24" viewBox="0 0 24 24" fill="none" xmlns="http://www.w3.org/2000/svg">
<path fill-rule="evenodd" clip-rule="evenodd" d="M2 6C2 5.44772 2.44772 5 3 5H18H21C21.5523 5 22 5.44771 22 6C22 6.55228 21.5523 7 21 7L18 7H3C2.44772 7 2 6.55229 2 6ZM21 11L10 11H3C2.44772 11 2 11.4477 2 12C2 12.5523 2.44772 13 3 13H10L21 13C21.5523 13 22 12.5523 22 12C22 11.4477 21.5523 11 21 11ZM2.00098 18C2.00098 17.4477 2.44869 17 3.00098 17H14H14.001L21 17C21.5523 17 22 17.4477 22 18C22 18.5523 21.5523 19 21 19L14.001 19H14H3.00098C2.44869 19 2.00098 18.5523 2.00098 18Z" fill="#00AABE"/>
</svg>
