<svg width="24" height="24" viewBox="0 0 24 24" fill="none" xmlns="http://www.w3.org/2000/svg">
<path d="M18.5678 22C18.4802 22 18.3925 22 18.3048 22C15.4997 21.6522 12.6946 20.6957 10.3277 19.2174C8.13623 17.8261 6.2077 15.913 4.80513 13.7391C3.22725 11.3913 2.26298 8.6087 2 5.82609C2 5.13043 2.17532 4.43478 2.61362 3.91304C3.05192 3.3913 3.66555 3.04348 4.36683 2.95652C4.45449 2.95652 4.54215 2.95652 4.62981 2.95652H7.25962C8.57453 2.95652 9.71412 3.91304 9.88944 5.21739C9.9771 6 10.1524 6.78261 10.4154 7.47826C10.766 8.43478 10.5031 9.47826 9.80178 10.2609L9.18815 10.8696C10.2401 12.4348 11.555 13.8261 13.2205 14.8696L13.8342 14.2609C14.5354 13.5652 15.675 13.3043 16.6393 13.6522C17.3406 13.913 18.1295 14.087 18.9185 14.1739C20.2334 14.3478 21.1976 15.4783 21.1976 16.7826V19.3913C21.1976 20.087 20.9347 20.7826 20.4087 21.2174C19.8827 21.6522 19.2691 22 18.5678 22ZM7.25962 4.69565H4.62981C4.36683 4.69565 4.10385 4.86957 3.92853 5.04348C3.84087 5.21739 3.75321 5.3913 3.75321 5.65217C4.01619 8.17391 4.89279 10.6087 6.29536 12.7826C7.61027 14.7826 9.27581 16.5217 11.292 17.7391C13.4835 19.1304 15.938 20 18.4802 20.2609C18.8308 20.2609 19.0061 20.1739 19.1814 20C19.3568 19.8261 19.4444 19.6522 19.4444 19.3913V16.7826C19.4444 16.3478 19.0938 16 18.6555 15.913C17.7789 15.8261 16.9023 15.5652 16.0257 15.2174C15.675 15.1304 15.3244 15.1304 15.0614 15.3913L13.9218 16.5217C13.6588 16.7826 13.2205 16.8696 12.8699 16.6957C10.5031 15.3913 8.57453 13.4783 7.25962 11.1304C7.17196 10.7826 7.25963 10.3478 7.52261 10.087L8.66219 8.95652C8.83751 8.78261 8.92517 8.34783 8.83751 8.08696C8.48687 7.21739 8.31155 6.34783 8.13623 5.47826C8.13623 5.04348 7.69793 4.69565 7.25962 4.69565ZM16.8146 10.087C16.5516 8.69565 15.412 7.65217 14.0095 7.30435C13.5712 7.21739 13.2205 6.78261 13.3082 6.26087C13.3959 5.82609 13.8342 5.47826 14.3601 5.56522C16.464 6 18.1295 7.56522 18.4802 9.65217C18.5678 10.087 18.3048 10.6087 17.7789 10.6957C17.1955 10.7921 16.8699 10.3613 16.8146 10.087ZM20.321 9.91304C19.9704 6.69565 17.4282 4.17391 14.0971 3.73913C13.6588 3.65217 13.3082 3.21739 13.3082 2.78261C13.3959 2.34783 13.8342 2 14.2725 2C18.3925 2.43478 21.5483 5.56522 21.9866 9.65217C22.0742 10.087 21.7236 10.5217 21.1976 10.6087C20.867 10.6634 20.4317 10.4618 20.321 9.91304Z" fill="#00AABE"/>
</svg>
